# xmcd CD database file
#
# Track frame offsets:
#	150
#	16760
#	33922
#	46962
#	65695
#	84337
#	103315
#	116620
#	129900
#	142347
#	158627
#	169390
#	186570
#	201617
#	217682
#	232435
#
# Disc length: 3313 seconds
#
# Revision: 0
# Processed by: cddbd v1.5.2PL0 Copyright (c) Steve Scherf et al.
# Submitted via: CDex 1.51
#
DISCID=ee0cef10
DTITLE=Various Artist - BBC Jazz Club Vol 9
DYEAR=2002
DGENRE=Jazz
TTITLE0=Mike Daniels Delta Jazz Band - Soliel Blues
TTITLE1=Mike Daniels Delta Jazz Band - The Pearls
TTITLE2=Mike Daniels Delta Jazz Band - On Revival day
TTITLE3=Mike Daniels Delta Jazz Band - The Chant
TTITLE4=Ken Colyer All Star Jazz Band - Down Among The Sheltering Palms
TTITLE5=Ken Colyer All Star Jazz Band - My Life Will Be Sweeter Someday
TTITLE6=All Saints Jazz band - Tiger Rag
TTITLE7=All Saints Jazz band - I've Found A New baby
TTITLE8=All Saints Jazz band - Beale Street Blues
TTITLE9=All Saints Jazz band - A Kiss To Build A Dream On
TTITLE10=Diz Disley Quintet - Undecided
TTITLE11=Diz Disley Quintet - Out Of Nowhere
TTITLE12=Diz Disley Quintet - Sweet Georgia Brown
TTITLE13=Diz Disley Quintet - Dinette
TTITLE14=Mick Mulligan and His Band - Button Up Your Overcoat
TTITLE15=Mick Mulligan and His Band - Nobody Knows You When Tou're Down And Out
EXTD=YEAR: 2002
EXTT0=
EXTT1=
EXTT2=
EXTT3=
EXTT4=
EXTT5=
EXTT6=
EXTT7=
EXTT8=
EXTT9=
EXTT10=
EXTT11=
EXTT12=
EXTT13=
EXTT14=
EXTT15=
PLAYORDER=
